{
	"asset":{
		"version":"2.0",
		"generator":"Created using the official Cinema 4D glTF Exporter 1.000x284978"
	},
	"scenes":[{
		"nodes":[0]
	}],
	"nodes":[{
		"name":"Cloner",
		"children":[1,
		2,
		3,
		4,
		5,
		6,
		7]
	},
	{
		"name":"Cloner-Mat.6",
		"mesh":0
	},
	{
		"name":"Cloner-Mat.4",
		"mesh":1
	},
	{
		"name":"Cloner-Mat.5",
		"mesh":2
	},
	{
		"name":"Cloner-Mat.3",
		"mesh":3
	},
	{
		"name":"Cloner-Mat.2",
		"mesh":4
	},
	{
		"name":"Cloner-Mat.1",
		"mesh":5
	},
	{
		"name":"Cloner-Mat",
		"mesh":6
	}],
	"meshes":[{
		"name":"Cloner-Mat.6",
		"primitives":[{
			"attributes":{
				"POSITION":1,
				"NORMAL":2,
				"TEXCOORD_0":3
			},
			"indices":0,
			"material":0
		}]
	},
	{
		"name":"Cloner-Mat.4",
		"primitives":[{
			"attributes":{
				"POSITION":5,
				"NORMAL":6,
				"TEXCOORD_0":7
			},
			"indices":4,
			"material":1
		}]
	},
	{
		"name":"Cloner-Mat.5",
		"primitives":[{
			"attributes":{
				"POSITION":9,
				"NORMAL":10,
				"TEXCOORD_0":11
			},
			"indices":8,
			"material":2
		}]
	},
	{
		"name":"Cloner-Mat.3",
		"primitives":[{
			"attributes":{
				"POSITION":13,
				"NORMAL":14,
				"TEXCOORD_0":15
			},
			"indices":12,
			"material":3
		}]
	},
	{
		"name":"Cloner-Mat.2",
		"primitives":[{
			"attributes":{
				"POSITION":17,
				"NORMAL":18,
				"TEXCOORD_0":19
			},
			"indices":16,
			"material":4
		}]
	},
	{
		"name":"Cloner-Mat.1",
		"primitives":[{
			"attributes":{
				"POSITION":21,
				"NORMAL":22,
				"TEXCOORD_0":23
			},
			"indices":20,
			"material":5
		}]
	},
	{
		"name":"Cloner-Mat",
		"primitives":[{
			"attributes":{
				"POSITION":25,
				"NORMAL":26,
				"TEXCOORD_0":27
			},
			"indices":24,
			"material":6
		}]
	}],
	"accessors":[{
		"bufferView":0,
		"byteOffset":0,
		"type":"SCALAR",
		"componentType":5123,
		"count":38880,
		"min":[0],
		"max":[9071]
	},
	{
		"bufferView":1,
		"byteOffset":0,
		"type":"VEC3",
		"componentType":5126,
		"count":9072,
		"min":[-3.0,
		-3.0,
		-3.0],
		"max":[3.0,
		3.0,
		3.0]
	},
	{
		"bufferView":1,
		"byteOffset":12,
		"type":"VEC3",
		"componentType":5126,
		"count":9072,
		"min":[-0.9937812685966492,
		-0.9930313229560852,
		-0.9938125610351563],
		"max":[0.9937812685966492,
		0.9930313229560852,
		0.9938125610351563]
	},
	{
		"bufferView":1,
		"byteOffset":24,
		"type":"VEC2",
		"componentType":5126,
		"count":9072,
		"min":[0.0,
		0.0],
		"max":[1.0,
		1.0]
	},
	{
		"bufferView":2,
		"byteOffset":0,
		"type":"SCALAR",
		"componentType":5123,
		"count":162,
		"min":[0],
		"max":[107]
	},
	{
		"bufferView":3,
		"byteOffset":0,
		"type":"VEC3",
		"componentType":5126,
		"count":108,
		"min":[-3.0,
		-2.859999895095825,
		-2.859999895095825],
		"max":[1.0,
		2.859999895095825,
		2.859999895095825]
	},
	{
		"bufferView":3,
		"byteOffset":12,
		"type":"VEC3",
		"componentType":5126,
		"count":108,
		"min":[-0.9937812685966492,
		-0.07821875065565109,
		-0.07821875065565109],
		"max":[-0.9937812685966492,
		0.07821875065565109,
		0.07821875065565109]
	},
	{
		"bufferView":3,
		"byteOffset":24,
		"type":"VEC2",
		"componentType":5126,
		"count":108,
		"min":[0.0,
		0.10181921720504761],
		"max":[0.8866384029388428,
		0.8981807231903076]
	},
	{
		"bufferView":4,
		"byteOffset":0,
		"type":"SCALAR",
		"componentType":5123,
		"count":162,
		"min":[0],
		"max":[107]
	},
	{
		"bufferView":5,
		"byteOffset":0,
		"type":"VEC3",
		"componentType":5126,
		"count":108,
		"min":[-2.859999895095825,
		-3.0,
		-2.859999895095825],
		"max":[2.859999895095825,
		1.0,
		2.859999895095825]
	},
	{
		"bufferView":5,
		"byteOffset":12,
		"type":"VEC3",
		"componentType":5126,
		"count":108,
		"min":[-0.08306250721216202,
		-0.9930313229560852,
		-0.08312500268220902],
		"max":[0.08306250721216202,
		-0.9930313229560852,
		0.08312500268220902]
	},
	{
		"bufferView":5,
		"byteOffset":24,
		"type":"VEC2",
		"componentType":5126,
		"count":108,
		"min":[0.0,
		0.0],
		"max":[1.0,
		1.0]
	},
	{
		"bufferView":6,
		"byteOffset":0,
		"type":"SCALAR",
		"componentType":5123,
		"count":162,
		"min":[0],
		"max":[107]
	},
	{
		"bufferView":7,
		"byteOffset":0,
		"type":"VEC3",
		"componentType":5126,
		"count":108,
		"min":[-2.859999895095825,
		-2.859999895095825,
		-3.0],
		"max":[2.859999895095825,
		2.859999895095825,
		1.0]
	},
	{
		"bufferView":7,
		"byteOffset":12,
		"type":"VEC3",
		"componentType":5126,
		"count":108,
		"min":[-0.0781562551856041,
		-0.07821875065565109,
		-0.9938125610351563],
		"max":[0.0781562551856041,
		0.07821875065565109,
		-0.9938125610351563]
	},
	{
		"bufferView":7,
		"byteOffset":24,
		"type":"VEC2",
		"componentType":5126,
		"count":108,
		"min":[0.0,
		0.10181921720504761],
		"max":[0.8866384029388428,
		0.8981807231903076]
	},
	{
		"bufferView":8,
		"byteOffset":0,
		"type":"SCALAR",
		"componentType":5123,
		"count":162,
		"min":[0],
		"max":[107]
	},
	{
		"bufferView":9,
		"byteOffset":0,
		"type":"VEC3",
		"componentType":5126,
		"count":108,
		"min":[-2.859999895095825,
		-1.0,
		-2.859999895095825],
		"max":[2.859999895095825,
		3.0,
		2.859999895095825]
	},
	{
		"bufferView":9,
		"byteOffset":12,
		"type":"VEC3",
		"componentType":5126,
		"count":108,
		"min":[-0.08306250721216202,
		0.9930313229560852,
		-0.08312500268220902],
		"max":[0.08306250721216202,
		0.9930313229560852,
		0.08312500268220902]
	},
	{
		"bufferView":9,
		"byteOffset":24,
		"type":"VEC2",
		"componentType":5126,
		"count":108,
		"min":[0.0,
		0.0],
		"max":[1.0,
		1.0]
	},
	{
		"bufferView":10,
		"byteOffset":0,
		"type":"SCALAR",
		"componentType":5123,
		"count":162,
		"min":[0],
		"max":[107]
	},
	{
		"bufferView":11,
		"byteOffset":0,
		"type":"VEC3",
		"componentType":5126,
		"count":108,
		"min":[-2.859999895095825,
		-2.859999895095825,
		-1.0],
		"max":[2.859999895095825,
		2.859999895095825,
		3.0]
	},
	{
		"bufferView":11,
		"byteOffset":12,
		"type":"VEC3",
		"componentType":5126,
		"count":108,
		"min":[-0.0781562551856041,
		-0.07821875065565109,
		0.9938125610351563],
		"max":[0.0781562551856041,
		0.07821875065565109,
		0.9938125610351563]
	},
	{
		"bufferView":11,
		"byteOffset":24,
		"type":"VEC2",
		"componentType":5126,
		"count":108,
		"min":[0.0,
		0.10181921720504761],
		"max":[0.8866384029388428,
		0.8981807231903076]
	},
	{
		"bufferView":12,
		"byteOffset":0,
		"type":"SCALAR",
		"componentType":5123,
		"count":162,
		"min":[0],
		"max":[107]
	},
	{
		"bufferView":13,
		"byteOffset":0,
		"type":"VEC3",
		"componentType":5126,
		"count":108,
		"min":[-1.0,
		-2.859999895095825,
		-2.859999895095825],
		"max":[3.0,
		2.859999895095825,
		2.859999895095825]
	},
	{
		"bufferView":13,
		"byteOffset":12,
		"type":"VEC3",
		"componentType":5126,
		"count":108,
		"min":[0.9937812685966492,
		-0.07821875065565109,
		-0.07821875065565109],
		"max":[0.9937812685966492,
		0.07821875065565109,
		0.07821875065565109]
	},
	{
		"bufferView":13,
		"byteOffset":24,
		"type":"VEC2",
		"componentType":5126,
		"count":108,
		"min":[0.0,
		0.10181921720504761],
		"max":[0.8866384029388428,
		0.8981807231903076]
	}],
	"bufferViews":[{
		"buffer":0,
		"byteOffset":0,
		"byteLength":77760,
		"target":34963
	},
	{
		"buffer":0,
		"byteOffset":77760,
		"byteLength":290304,
		"target":34962,
		"byteStride":32
	},
	{
		"buffer":1,
		"byteOffset":0,
		"byteLength":324,
		"target":34963
	},
	{
		"buffer":1,
		"byteOffset":324,
		"byteLength":3456,
		"target":34962,
		"byteStride":32
	},
	{
		"buffer":2,
		"byteOffset":0,
		"byteLength":324,
		"target":34963
	},
	{
		"buffer":2,
		"byteOffset":324,
		"byteLength":3456,
		"target":34962,
		"byteStride":32
	},
	{
		"buffer":3,
		"byteOffset":0,
		"byteLength":324,
		"target":34963
	},
	{
		"buffer":3,
		"byteOffset":324,
		"byteLength":3456,
		"target":34962,
		"byteStride":32
	},
	{
		"buffer":4,
		"byteOffset":0,
		"byteLength":324,
		"target":34963
	},
	{
		"buffer":4,
		"byteOffset":324,
		"byteLength":3456,
		"target":34962,
		"byteStride":32
	},
	{
		"buffer":5,
		"byteOffset":0,
		"byteLength":324,
		"target":34963
	},
	{
		"buffer":5,
		"byteOffset":324,
		"byteLength":3456,
		"target":34962,
		"byteStride":32
	},
	{
		"buffer":6,
		"byteOffset":0,
		"byteLength":324,
		"target":34963
	},
	{
		"buffer":6,
		"byteOffset":324,
		"byteLength":3456,
		"target":34962,
		"byteStride":32
	}],
	"buffers":[{
		"uri":"data:application/octet-stream;base64,",
		"byteLength":368064
	},
	{
		"uri":"data:application/octet-stream;base64,",
		"byteLength":3780
	},
	{
		"uri":"data:application/octet-stream;base64,",
		"byteLength":3780
	},
	{
		"uri":"data:application/octet-stream;base64,",
		"byteLength":3780
	},
	{
		"uri":"data:application/octet-stream;base64,",
		"byteLength":3780
	},
	{
		"uri":"data:application/octet-stream;base64,",
		"byteLength":3780
	},
	{
		"uri":"data:application/octet-stream;base64,",
		"byteLength":3780
	}],
	"materials":[{
		"emissiveFactor":[0.0,
		0.0,
		0.0],
		"pbrMetallicRoughness":{
			"baseColorFactor":[0.16,
			0.16,
			0.16,
			1.0],
			"metallicFactor":0.0,
			"roughnessFactor":0.25
		},
		"alphaMode":"OPAQUE",
		"doubleSided":false,
		"name":"Mat.6"
	},
	{
		"emissiveFactor":[0.0,
		0.0,
		0.0],
		"pbrMetallicRoughness":{
			"baseColorFactor":[0.9500000000000001,
			0.9500000000000001,
			0.9500000000000001,
			1.0],
			"metallicFactor":0.0,
			"roughnessFactor":0.5
		},
		"alphaMode":"OPAQUE",
		"doubleSided":false,
		"name":"Mat.4"
	},
	{
		"emissiveFactor":[0.0,
		0.0,
		0.0],
		"pbrMetallicRoughness":{
			"baseColorFactor":[0.97,
			0.6305000000000002,
			0.0,
			1.0],
			"metallicFactor":0.0,
			"roughnessFactor":0.5
		},
		"alphaMode":"OPAQUE",
		"doubleSided":false,
		"name":"Mat.5"
	},
	{
		"emissiveFactor":[0.0,
		0.0,
		0.0],
		"pbrMetallicRoughness":{
			"baseColorFactor":[0.79,
			0.7636666666666668,
			0.0,
			1.0],
			"metallicFactor":0.0,
			"roughnessFactor":0.5
		},
		"alphaMode":"OPAQUE",
		"doubleSided":false,
		"name":"Mat.3"
	},
	{
		"emissiveFactor":[0.0,
		0.0,
		0.0],
		"pbrMetallicRoughness":{
			"baseColorFactor":[0.99,
			0.0,
			0.0,
			1.0],
			"metallicFactor":0.0,
			"roughnessFactor":0.5
		},
		"alphaMode":"OPAQUE",
		"doubleSided":false,
		"name":"Mat.2"
	},
	{
		"emissiveFactor":[0.0,
		0.0,
		0.0],
		"pbrMetallicRoughness":{
			"baseColorFactor":[0.12126999999999974,
			0.67,
			0.060299999999999989,
			1.0],
			"metallicFactor":0.0,
			"roughnessFactor":0.5
		},
		"alphaMode":"OPAQUE",
		"doubleSided":false,
		"name":"Mat.1"
	},
	{
		"emissiveFactor":[0.0,
		0.0,
		0.0],
		"pbrMetallicRoughness":{
			"baseColorFactor":[0.07199999999999998,
			0.3636000000000001,
			0.72,
			1.0],
			"metallicFactor":0.0,
			"roughnessFactor":0.5
		},
		"alphaMode":"OPAQUE",
		"doubleSided":false,
		"name":"Mat"
	}]
}